{"title":"Crawlspace 2012 DVDRip H264 AC3 HS","uid":7980972,"size":777888886,"categoryP":"video","categoryS":"movies","magnet":"?xt=urn:btih:3299369addc41563d12cc9e48b714f9dfcf8a991&amp;dn=Crawlspace+2012+DVDRip+H264+AC3+HS&amp;tr=udp%3A%2F%2Ftracker.openbittorrent.com%3A80&amp;tr=udp%3A%2F%2Fopen.demonii.com%3A1337&amp;tr=udp%3A%2F%2Ftracker.coppersurfer.tk%3A6969&amp;tr=udp%3A%2F%2Fexodus.desync.com%3A6969","seeders":7,"leechers":3,"uploader":"juggs99","files":3,"time":1357173782,"description":" &lt;a href=&quot;http://i281.photobucket.com/albums/kk227/Dashing_03/crawlspace.png&quot; rel=&quot;nofollow&quot; target=&quot;_NEW&quot;&gt;http://i281.photobucket.com/albums/kk227/Dashing_03/crawlspace.png&lt;/a&gt;\n\n\n\nCrawlspace 2012 DVDRip H264 AC3 HS\n &lt;a href=&quot;\nhttp://www.imdb.com/title/tt1890375/&quot; rel=&quot;nofollow&quot; target=&quot;_NEW&quot;&gt;\nhttp://www.imdb.com/title/tt1890375/&lt;/a&gt;\n\nSource -- DVDR(A friend)\n\nFormat                                   : Matroska\nFormat version                           : Version 2\nFile size                                : 742 MiB\nDuration                                 : 1h 26mn\n\nVideo\n\nID                                       : 1\nFormat                                   : AVC\nFormat/Info                              : Advanced Video Codec\nFormat profile                           : &lt;a class=&quot;__cf_email__&quot; href=&quot;/cdn-cgi/l/email-protection&quot; data-cfemail=&quot;6e260709062e225d405e&quot;&gt;[email&amp;#160;protected]&lt;/a&gt;&lt;script cf-hash='f9e31' type=&quot;text/javascript&quot;&gt;\n/* &lt;![CDATA[ */!function(){try{var t=&quot;currentScript&quot;in document?document.currentScript:function(){for(var t=document.getElementsByTagName(&quot;script&quot;),e=t.length;e--;)if(t[e].getAttribute(&quot;cf-hash&quot;))return t[e]}();if(t&amp;&amp;t.previousSibling){var e,r,n,i,c=t.previousSibling,a=c.getAttribute(&quot;data-cfemail&quot;);if(a){for(e=&quot;&quot;,r=parseInt(a.substr(0,2),16),n=2;a.length-n;n+=2)i=parseInt(a.substr(n,2),16)^r,e+=String.fromCharCode(i);e=document.createTextNode(e),c.parentNode.replaceChild(e,c)}}}catch(u){}}();/* ]]&gt; */&lt;/script&gt;\nFormat settings, CABAC                   : Yes\nFormat settings, ReFrames                : 4 frames\nMuxing mode                              : Header stripping\nCodec ID                                 : V_MPEG4/ISO/AVC\nDuration                                 : 1h 26mn\nBit rate                                 : 785 Kbps\nWidth                                    : 720 pixels\nHeight                                   : 306 pixels\nDisplay aspect ratio                     : 2.35:1\nFrame rate mode                          : Constant\nFrame rate                               : 24.000 fps\nColor space                              : YUV\nChroma subsampling                       : 4:2:0\nBit depth                                : 8 bits\nScan type                                : Progressive\nBits/(Pixel*Frame)                       : 0.148\nStream size                              : 488 MiB (66%)\n\nAudio\n\nID                                       : 2\nFormat                                   : AC-3\nFormat/Info                              : Audio Coding 3\nCodec ID                                 : A_AC3\nDuration                                 : 1h 26mn\nBit rate mode                            : Constant\nBit rate                                 : 384 Kbps\nChannel(s)                               : 6 channels\nChannel positions                        : Front: L C R, Side: L R, LFE\nSampling rate                            : 44.1 KHz\nBit depth                                : 16 bits\nCompression mode                         : Lossy\nStream size                              : 239 MiB (32%)\nDefault                                  : Yes\nForced                                   : No\n\n\n &lt;a href=&quot;\nhttp://lookpic.com/remote-upload.php?img=http://i.imgur.com/z8Wqn.png&quot; rel=&quot;nofollow&quot; target=&quot;_NEW&quot;&gt;\nhttp://lookpic.com/remote-upload.php?img=http://i.imgur.com/z8Wqn.png&lt;/a&gt; &lt;a href=&quot;\nhttp://lookpic.com/remote-upload.php?img=http://i.imgur.com/Bywmu.png&quot; rel=&quot;nofollow&quot; target=&quot;_NEW&quot;&gt;\nhttp://lookpic.com/remote-upload.php?img=http://i.imgur.com/Bywmu.png&lt;/a&gt; &lt;a href=&quot;\nhttp://lookpic.com/remote-upload.php?img=http://i.imgur.com/Srt5n.png&quot; rel=&quot;nofollow&quot; target=&quot;_NEW&quot;&gt;\nhttp://lookpic.com/remote-upload.php?img=http://i.imgur.com/Srt5n.png&lt;/a&gt; &lt;a href=&quot;\nhttp://lookpic.com/remote-upload.php?img=http://i.imgur.com/5LQbb.png&quot; rel=&quot;nofollow&quot; target=&quot;_NEW&quot;&gt;\nhttp://lookpic.com/remote-upload.php?img=http://i.imgur.com/5LQbb.png&lt;/a&gt;","torrent":{"xt":"urn:btih:3299369addc41563d12cc9e48b714f9dfcf8a991","amp;dn":"Crawlspace+2012+DVDRip+H264+AC3+HS","amp;tr":["udp%3A%2F%2Ftracker.openbittorrent.com%3A80","udp%3A%2F%2Fopen.demonii.com%3A1337","udp%3A%2F%2Ftracker.coppersurfer.tk%3A6969","udp%3A%2F%2Fexodus.desync.com%3A6969"],"infoHash":"3299369addc41563d12cc9e48b714f9dfcf8a991","infoHashBuffer":{"type":"Buffer","data":[50,153,54,154,221,196,21,99,209,44,201,228,139,113,79,157,252,248,169,145]},"announce":[],"urlList":[]}}